<mxfile host="app.diagrams.net" modified="2020-10-07T14:37:23.738Z" agent="5.0 (X11; Linux x86_64) AppleWebKit/537.36 (KHTML, like Gecko) Chrome/85.0.4183.121 Safari/537.36" etag="lEJJjwmzNmVmD2c_O9VP" version="13.7.7" type="github">
  <diagram id="FFwEO2p_gcXmrBvd7Jtg" name="Page-1">
    <mxGraphModel dx="1422" dy="833" grid="1" gridSize="10" guides="1" tooltips="1" connect="1" arrows="1" fold="1" page="1" pageScale="1" pageWidth="2000" pageHeight="2000" math="0" shadow="0">
      <root>
        <mxCell id="0" />
        <mxCell id="1" parent="0" />
        <mxCell id="sK4rs6RbN3mdAD_nlhEC-1" value="" style="edgeStyle=orthogonalEdgeStyle;rounded=0;orthogonalLoop=1;jettySize=auto;html=1;" edge="1" parent="1" source="sK4rs6RbN3mdAD_nlhEC-2" target="sK4rs6RbN3mdAD_nlhEC-5">
          <mxGeometry relative="1" as="geometry" />
        </mxCell>
        <mxCell id="sK4rs6RbN3mdAD_nlhEC-2" value="request channels" style="whiteSpace=wrap;html=1;aspect=fixed;" vertex="1" parent="1">
          <mxGeometry x="164" y="240" width="80" height="80" as="geometry" />
        </mxCell>
        <mxCell id="sK4rs6RbN3mdAD_nlhEC-3" value="" style="edgeStyle=orthogonalEdgeStyle;rounded=0;orthogonalLoop=1;jettySize=auto;html=1;" edge="1" parent="1" source="sK4rs6RbN3mdAD_nlhEC-5" target="sK4rs6RbN3mdAD_nlhEC-6">
          <mxGeometry relative="1" as="geometry" />
        </mxCell>
        <mxCell id="sK4rs6RbN3mdAD_nlhEC-4" value="" style="edgeStyle=orthogonalEdgeStyle;rounded=0;orthogonalLoop=1;jettySize=auto;html=1;" edge="1" parent="1" source="sK4rs6RbN3mdAD_nlhEC-5" target="sK4rs6RbN3mdAD_nlhEC-8">
          <mxGeometry relative="1" as="geometry" />
        </mxCell>
        <mxCell id="sK4rs6RbN3mdAD_nlhEC-5" value="status 200?" style="rhombus;whiteSpace=wrap;html=1;" vertex="1" parent="1">
          <mxGeometry x="164" y="340" width="80" height="80" as="geometry" />
        </mxCell>
        <mxCell id="sK4rs6RbN3mdAD_nlhEC-6" value="do nothing" style="whiteSpace=wrap;html=1;" vertex="1" parent="1">
          <mxGeometry x="280" y="350" width="120" height="60" as="geometry" />
        </mxCell>
        <mxCell id="sK4rs6RbN3mdAD_nlhEC-7" value="" style="edgeStyle=orthogonalEdgeStyle;rounded=0;orthogonalLoop=1;jettySize=auto;html=1;" edge="1" parent="1" source="sK4rs6RbN3mdAD_nlhEC-8" target="sK4rs6RbN3mdAD_nlhEC-10">
          <mxGeometry relative="1" as="geometry" />
        </mxCell>
        <mxCell id="sK4rs6RbN3mdAD_nlhEC-8" value="parse response data as JSON" style="whiteSpace=wrap;html=1;" vertex="1" parent="1">
          <mxGeometry x="144" y="450" width="120" height="60" as="geometry" />
        </mxCell>
        <mxCell id="sK4rs6RbN3mdAD_nlhEC-9" value="" style="edgeStyle=orthogonalEdgeStyle;rounded=0;orthogonalLoop=1;jettySize=auto;html=1;" edge="1" parent="1" source="sK4rs6RbN3mdAD_nlhEC-10" target="sK4rs6RbN3mdAD_nlhEC-12">
          <mxGeometry relative="1" as="geometry" />
        </mxCell>
        <mxCell id="sK4rs6RbN3mdAD_nlhEC-10" value="for every channel in response data" style="whiteSpace=wrap;html=1;" vertex="1" parent="1">
          <mxGeometry x="144" y="530" width="120" height="60" as="geometry" />
        </mxCell>
        <mxCell id="sK4rs6RbN3mdAD_nlhEC-11" value="" style="edgeStyle=orthogonalEdgeStyle;rounded=0;orthogonalLoop=1;jettySize=auto;html=1;" edge="1" parent="1" source="sK4rs6RbN3mdAD_nlhEC-12" target="sK4rs6RbN3mdAD_nlhEC-14">
          <mxGeometry relative="1" as="geometry" />
        </mxCell>
        <mxCell id="sK4rs6RbN3mdAD_nlhEC-12" value="create option element with the channels name as innerHTML and the channels API id as id" style="whiteSpace=wrap;html=1;" vertex="1" parent="1">
          <mxGeometry x="144" y="620" width="120" height="70" as="geometry" />
        </mxCell>
        <mxCell id="sK4rs6RbN3mdAD_nlhEC-13" value="" style="edgeStyle=orthogonalEdgeStyle;rounded=0;orthogonalLoop=1;jettySize=auto;html=1;" edge="1" parent="1" source="sK4rs6RbN3mdAD_nlhEC-14" target="sK4rs6RbN3mdAD_nlhEC-16">
          <mxGeometry relative="1" as="geometry" />
        </mxCell>
        <mxCell id="sK4rs6RbN3mdAD_nlhEC-14" value="append the option to select tag with id &quot;playchannel&quot;" style="whiteSpace=wrap;html=1;" vertex="1" parent="1">
          <mxGeometry x="140" y="700" width="120" height="60" as="geometry" />
        </mxCell>
        <mxCell id="sK4rs6RbN3mdAD_nlhEC-15" value="" style="edgeStyle=orthogonalEdgeStyle;rounded=0;orthogonalLoop=1;jettySize=auto;html=1;" edge="1" parent="1" source="sK4rs6RbN3mdAD_nlhEC-16" target="sK4rs6RbN3mdAD_nlhEC-18">
          <mxGeometry relative="1" as="geometry" />
        </mxCell>
        <mxCell id="sK4rs6RbN3mdAD_nlhEC-16" value="create an li tag and an a tag" style="whiteSpace=wrap;html=1;" vertex="1" parent="1">
          <mxGeometry x="140" y="770" width="120" height="60" as="geometry" />
        </mxCell>
        <mxCell id="sK4rs6RbN3mdAD_nlhEC-17" value="" style="edgeStyle=orthogonalEdgeStyle;rounded=0;orthogonalLoop=1;jettySize=auto;html=1;" edge="1" parent="1" source="sK4rs6RbN3mdAD_nlhEC-18" target="sK4rs6RbN3mdAD_nlhEC-20">
          <mxGeometry relative="1" as="geometry" />
        </mxCell>
        <mxCell id="sK4rs6RbN3mdAD_nlhEC-18" value="add channel name as innerHTML, title as taglien from channel to the a tag" style="whiteSpace=wrap;html=1;" vertex="1" parent="1">
          <mxGeometry x="140" y="850" width="120" height="60" as="geometry" />
        </mxCell>
        <mxCell id="sK4rs6RbN3mdAD_nlhEC-19" value="" style="edgeStyle=orthogonalEdgeStyle;rounded=0;orthogonalLoop=1;jettySize=auto;html=1;" edge="1" parent="1" source="sK4rs6RbN3mdAD_nlhEC-20" target="sK4rs6RbN3mdAD_nlhEC-21">
          <mxGeometry relative="1" as="geometry" />
        </mxCell>
        <mxCell id="sK4rs6RbN3mdAD_nlhEC-20" value="append the a tago to the li tag and the li tag to ul tag with id &quot;mainnavlist&quot;" style="whiteSpace=wrap;html=1;" vertex="1" parent="1">
          <mxGeometry x="140" y="920" width="120" height="60" as="geometry" />
        </mxCell>
        <mxCell id="sK4rs6RbN3mdAD_nlhEC-21" value="more channels?" style="rhombus;whiteSpace=wrap;html=1;" vertex="1" parent="1">
          <mxGeometry x="145" y="1020" width="110" height="110" as="geometry" />
        </mxCell>
        <mxCell id="sK4rs6RbN3mdAD_nlhEC-22" value="no" style="text;html=1;strokeColor=none;fillColor=none;align=center;verticalAlign=middle;whiteSpace=wrap;rounded=0;" vertex="1" parent="1">
          <mxGeometry x="244" y="360" width="40" height="20" as="geometry" />
        </mxCell>
        <mxCell id="sK4rs6RbN3mdAD_nlhEC-23" value="yes" style="text;html=1;strokeColor=none;fillColor=none;align=center;verticalAlign=middle;whiteSpace=wrap;rounded=0;" vertex="1" parent="1">
          <mxGeometry x="204" y="420" width="40" height="20" as="geometry" />
        </mxCell>
        <mxCell id="sK4rs6RbN3mdAD_nlhEC-24" value="" style="edgeStyle=elbowEdgeStyle;elbow=horizontal;endArrow=classic;html=1;exitX=0;exitY=0.5;exitDx=0;exitDy=0;entryX=0;entryY=0.5;entryDx=0;entryDy=0;" edge="1" parent="1" source="sK4rs6RbN3mdAD_nlhEC-21" target="sK4rs6RbN3mdAD_nlhEC-8">
          <mxGeometry width="50" height="50" relative="1" as="geometry">
            <mxPoint x="430" y="810" as="sourcePoint" />
            <mxPoint x="480" y="760" as="targetPoint" />
            <Array as="points">
              <mxPoint x="80" y="780" />
            </Array>
          </mxGeometry>
        </mxCell>
        <mxCell id="sK4rs6RbN3mdAD_nlhEC-25" value="yes" style="text;html=1;strokeColor=none;fillColor=none;align=center;verticalAlign=middle;whiteSpace=wrap;rounded=0;" vertex="1" parent="1">
          <mxGeometry x="90" y="1050" width="40" height="20" as="geometry" />
        </mxCell>
        <mxCell id="sK4rs6RbN3mdAD_nlhEC-26" value="" style="edgeStyle=orthogonalEdgeStyle;rounded=0;orthogonalLoop=1;jettySize=auto;html=1;" edge="1" parent="1" source="sK4rs6RbN3mdAD_nlhEC-27" target="sK4rs6RbN3mdAD_nlhEC-31">
          <mxGeometry relative="1" as="geometry" />
        </mxCell>
        <mxCell id="sK4rs6RbN3mdAD_nlhEC-27" value="on page load" style="rounded=0;whiteSpace=wrap;html=1;" vertex="1" parent="1">
          <mxGeometry x="20" y="20" width="120" height="60" as="geometry" />
        </mxCell>
        <mxCell id="sK4rs6RbN3mdAD_nlhEC-28" value="" style="edgeStyle=orthogonalEdgeStyle;rounded=0;orthogonalLoop=1;jettySize=auto;html=1;" edge="1" parent="1" source="sK4rs6RbN3mdAD_nlhEC-29" target="sK4rs6RbN3mdAD_nlhEC-30">
          <mxGeometry relative="1" as="geometry" />
        </mxCell>
        <mxCell id="sK4rs6RbN3mdAD_nlhEC-29" value="on numrows change" style="rounded=0;whiteSpace=wrap;html=1;" vertex="1" parent="1">
          <mxGeometry x="270" y="20" width="120" height="60" as="geometry" />
        </mxCell>
        <mxCell id="sK4rs6RbN3mdAD_nlhEC-30" value="save new numrow value to settings" style="whiteSpace=wrap;html=1;rounded=0;" vertex="1" parent="1">
          <mxGeometry x="270" y="140" width="120" height="60" as="geometry" />
        </mxCell>
        <mxCell id="sK4rs6RbN3mdAD_nlhEC-31" value="set saved value of numRows to html element with id numrows" style="whiteSpace=wrap;html=1;rounded=0;" vertex="1" parent="1">
          <mxGeometry x="20" y="140" width="120" height="60" as="geometry" />
        </mxCell>
        <mxCell id="sK4rs6RbN3mdAD_nlhEC-32" value="" style="edgeStyle=segmentEdgeStyle;endArrow=classic;html=1;exitX=0.5;exitY=1;exitDx=0;exitDy=0;entryX=0;entryY=0.5;entryDx=0;entryDy=0;" edge="1" parent="1" source="sK4rs6RbN3mdAD_nlhEC-31" target="sK4rs6RbN3mdAD_nlhEC-2">
          <mxGeometry width="50" height="50" relative="1" as="geometry">
            <mxPoint x="80" y="220" as="sourcePoint" />
            <mxPoint x="130" y="290" as="targetPoint" />
            <Array as="points">
              <mxPoint x="80" y="280" />
            </Array>
          </mxGeometry>
        </mxCell>
        <mxCell id="sK4rs6RbN3mdAD_nlhEC-33" value="" style="edgeStyle=segmentEdgeStyle;endArrow=classic;html=1;entryX=1;entryY=0.5;entryDx=0;entryDy=0;exitX=0.5;exitY=1;exitDx=0;exitDy=0;" edge="1" parent="1" source="sK4rs6RbN3mdAD_nlhEC-30" target="sK4rs6RbN3mdAD_nlhEC-2">
          <mxGeometry width="50" height="50" relative="1" as="geometry">
            <mxPoint x="340" y="240" as="sourcePoint" />
            <mxPoint x="380" y="320" as="targetPoint" />
            <Array as="points">
              <mxPoint x="330" y="280" />
            </Array>
          </mxGeometry>
        </mxCell>
      </root>
    </mxGraphModel>
  </diagram>
</mxfile>
